<?xml version="1.0" encoding="UTF-8" standalone="no"?>
<!DOCTYPE svg PUBLIC "-//W3C//DTD SVG 1.1//EN" "http://www.w3.org/Graphics/SVG/1.1/DTD/svg11.dtd">
<svg width="100%" height="100%" viewBox="0 0 12095 12095" version="1.1" xmlns="http://www.w3.org/2000/svg" xmlns:xlink="http://www.w3.org/1999/xlink" xml:space="preserve" xmlns:serif="http://www.serif.com/" style="fill-rule:evenodd;clip-rule:evenodd;stroke-linejoin:round;stroke-miterlimit:2;">
    <path d="M12094.5,2371.89l0,7350.7c0,1309.08 -1062.81,2371.89 -2371.89,2371.89l-7350.7,0c-1309.08,0 -2371.89,-1062.81 -2371.89,-2371.89l0,-7350.7c0,-1309.08 1062.81,-2371.89 2371.89,-2371.89l7350.7,0c1309.08,0 2371.89,1062.81 2371.89,2371.89Z" style="fill:url(#_Linear1);fill-rule:nonzero;"/>
    <g>
        <path d="M5959.55,1985.05l3708.67,6423.6c325.935,564.534 132.221,1287.48 -432.313,1613.42l-900.121,519.685c-564.534,325.934 -1287.48,132.221 -1613.42,-432.314l-3708.67,-6423.6c-325.934,-564.534 -132.22,-1287.48 432.314,-1613.41l900.121,-519.685c564.534,-325.935 1287.48,-132.221 1613.42,432.313Z" style="fill:#3a0067;"/>
        <path d="M5632.23,2174.03l3685.04,6382.68c234.673,406.465 95.199,926.987 -311.265,1161.66l-29.371,16.957c-406.465,234.673 -926.987,95.2 -1161.66,-311.265l-3685.04,-6382.68c-234.673,-406.464 -95.199,-926.987 311.266,-1161.66l29.371,-16.957c406.464,-234.673 926.986,-95.199 1161.66,311.265Z" style="fill:#fff;"/>
    </g>
    <g>
        <path d="M5372.12,6240.18l1251.97,2168.47c325.934,564.534 132.221,1287.48 -432.313,1613.42l-900.121,519.685c-564.534,325.934 -1287.48,132.221 -1613.42,-432.314l-1251.97,-2168.47c-325.934,-564.534 -132.221,-1287.48 432.313,-1613.42l900.121,-519.685c564.534,-325.934 1287.48,-132.221 1613.42,432.314Z" style="fill:#3a0067;"/>
        <path d="M5032.99,6408.69l1240.15,2148.01c234.673,406.465 95.199,926.987 -311.265,1161.66l-29.371,16.957c-406.465,234.673 -926.987,95.2 -1161.66,-311.265l-1240.15,-2148.01c-234.672,-406.464 -95.199,-926.986 311.266,-1161.66l29.371,-16.957c406.465,-234.673 926.987,-95.199 1161.66,311.265Z" style="fill:#fff;"/>
    </g>
    <defs>
        <linearGradient id="_Linear1" x1="0" y1="0" x2="1" y2="0" gradientUnits="userSpaceOnUse" gradientTransform="matrix(12094.5,12094.5,-12094.5,12094.5,0,0)"><stop offset="0" style="stop-color:#3a0067;stop-opacity:1"/><stop offset="1" style="stop-color:#a855f7;stop-opacity:1"/></linearGradient>
    </defs>
</svg>
