<svg width="158" height="36" viewBox="0 0 158 36" fill="none" xmlns="http://www.w3.org/2000/svg">
<g clip-path="url(#clip0_8658_247)">
<path d="M42.5918 27.6652V8.26736H46.1079V24.7176H54.655V27.6652H42.5918V27.6652Z" fill="black"/>
<path d="M60.2077 8.26736H56.7751V27.6652H60.2077V8.26736Z" fill="black"/>
<path d="M68.8839 27.954C67.4214 27.954 66.162 27.6481 65.1056 27.0362C64.0492 26.4243 63.2366 25.5579 62.6676 24.4371C62.0987 23.3163 61.8142 21.9956 61.8142 20.4751C61.8142 18.9799 62.0993 17.6656 62.6695 16.5321C63.2397 15.3987 64.0403 14.5147 65.0715 13.8801C66.1027 13.2455 67.3128 12.9282 68.702 12.9282C69.5961 12.9282 70.4428 13.0722 71.2423 13.3601C72.0417 13.648 72.7495 14.091 73.3658 14.6889C73.9821 15.2869 74.4664 16.0487 74.8188 16.9744C75.1711 17.9001 75.3472 19.0014 75.3472 20.2782V21.3314H63.4206V19.0204H72.0587C72.0562 18.3611 71.9163 17.7745 71.6391 17.2605C71.3619 16.7465 70.9754 16.3418 70.4798 16.0463C69.9842 15.7508 69.4067 15.603 68.7474 15.603C68.0441 15.603 67.4275 15.7707 66.8977 16.106C66.368 16.4413 65.9566 16.8823 65.6635 17.4291C65.3705 17.9759 65.2215 18.5745 65.2165 19.2249V21.2406C65.2165 22.0866 65.3702 22.8111 65.6778 23.4142C65.9853 24.0172 66.4169 24.4788 66.9726 24.7989C67.5282 25.1191 68.1805 25.2792 68.9293 25.2792C69.4256 25.2792 69.8768 25.2088 70.2828 25.0679C70.6889 24.9271 71.039 24.7168 71.3332 24.4371C71.6274 24.1574 71.8516 23.8117 72.0057 23.3999L75.211 23.7637C75.0089 24.6073 74.6243 25.3432 74.0573 25.9715C73.4902 26.5998 72.7685 27.0873 71.892 27.434C71.0156 27.7807 70.0129 27.954 68.8839 27.954L68.8839 27.954Z" fill="black"/>
<path d="M89.8508 13.1173L84.6678 27.6657H80.8792L75.6963 13.1173H79.3486L82.6977 23.9225H82.8492L86.1983 13.1173H89.8507H89.8508Z" fill="black"/>
<path d="M96.9515 27.954C95.4891 27.954 94.2296 27.6481 93.1733 27.0362C92.1169 26.4243 91.3042 25.5579 90.7353 24.4371C90.1663 23.3163 89.8819 21.9956 89.8819 20.4751C89.8819 18.9799 90.167 17.6656 90.7371 16.5321C91.3073 15.3987 92.108 14.5147 93.1392 13.8801C94.1703 13.2455 95.3805 12.9282 96.7697 12.9282C97.6637 12.9282 98.5105 13.0722 99.3099 13.3601C100.109 13.648 100.817 14.091 101.433 14.6889C102.05 15.2869 102.534 16.0487 102.886 16.9744C103.239 17.9001 103.415 19.0014 103.415 20.2782V21.3314H91.4882V19.0204H100.126C100.124 18.3611 99.984 17.7745 99.7068 17.2605C99.4295 16.7465 99.0431 16.3418 98.5475 16.0463C98.0518 15.7508 97.4744 15.603 96.8151 15.603C96.1117 15.603 95.4952 15.7707 94.9654 16.106C94.4356 16.4413 94.0242 16.8823 93.7312 17.4291C93.4382 17.9759 93.2892 18.5745 93.2841 19.2249V21.2406C93.2841 22.0866 93.4379 22.8111 93.7454 23.4142C94.053 24.0172 94.4845 24.4788 95.0402 24.7989C95.5959 25.1191 96.2481 25.2792 96.997 25.2792C97.4933 25.2792 97.9444 25.2088 98.3505 25.0679C98.7565 24.9271 99.1066 24.7168 99.4009 24.4371C99.6951 24.1574 99.9192 23.8117 100.073 23.3999L103.279 23.7637C103.077 24.6073 102.692 25.3432 102.125 25.9715C101.558 26.5998 100.836 27.0873 99.9597 27.434C99.0833 27.7807 98.0806 27.954 96.9516 27.954L96.9515 27.954Z" fill="black"/>
<path d="M105.368 27.6655V13.1171H108.695V15.5418H108.846C109.111 14.7007 109.568 14.0509 110.216 13.5925C110.864 13.134 111.604 12.9048 112.438 12.9048C112.627 12.9048 112.841 12.9137 113.078 12.9314C113.316 12.9491 113.514 12.9744 113.673 13.0072V16.1557C113.524 16.1089 113.293 16.0644 112.981 16.022C112.668 15.9797 112.368 15.9585 112.082 15.9585C111.453 15.9585 110.891 16.0927 110.397 16.3611C109.902 16.6294 109.513 17.0007 109.228 17.475C108.943 17.9492 108.801 18.4944 108.801 19.1107V27.6655H105.368L105.368 27.6655Z" fill="black"/>
<path d="M118.819 27.9616C117.895 27.9616 117.065 27.7952 116.33 27.4624C115.595 27.1296 115.014 26.6383 114.588 25.9886C114.161 25.3388 113.947 24.5366 113.947 23.5818C113.947 22.7635 114.1 22.085 114.406 21.5464C114.711 21.0077 115.126 20.5774 115.65 20.2554C116.174 19.9333 116.766 19.6899 117.424 19.5252C118.083 19.3604 118.765 19.2401 119.471 19.1643C120.327 19.0708 121.02 18.9877 121.55 18.9151C122.08 18.8425 122.466 18.7292 122.708 18.5751C122.949 18.421 123.07 18.1805 123.07 17.8534V17.7927C123.07 17.0805 122.86 16.5286 122.439 16.1371C122.017 15.7456 121.407 15.5499 120.608 15.5499C119.768 15.5499 119.104 15.7337 118.615 16.1012C118.126 16.4687 117.795 16.9012 117.622 17.3988L114.425 16.9441C114.677 16.0601 115.094 15.3198 115.676 14.723C116.257 14.1263 116.968 13.678 117.807 13.3781C118.646 13.0781 119.575 12.9282 120.593 12.9282C121.29 12.9282 121.987 13.0099 122.683 13.1735C123.379 13.337 124.015 13.6076 124.591 13.9852C125.166 14.3629 125.628 14.8737 125.978 15.5178C126.328 16.1618 126.503 16.9657 126.503 17.9292V27.666H123.207V25.6656H123.093C122.886 26.0723 122.594 26.4505 122.216 26.8003C121.838 27.1501 121.368 27.4311 120.805 27.6433C120.241 27.8555 119.58 27.9616 118.819 27.9616L118.819 27.9616ZM119.706 25.4383C120.395 25.4383 120.993 25.3012 121.499 25.0272C122.005 24.7532 122.396 24.3895 122.672 23.9361C122.947 23.4828 123.085 22.9858 123.085 22.4452V20.7328C122.973 20.8238 122.79 20.9068 122.537 20.9819C122.284 21.0571 121.998 21.1234 121.681 21.1808C121.363 21.2383 121.049 21.2888 120.739 21.3324C120.429 21.3759 120.161 21.4135 119.933 21.4451C119.423 21.5158 118.966 21.6298 118.563 21.787C118.159 21.9442 117.841 22.1633 117.608 22.4443C117.375 22.7253 117.259 23.0868 117.259 23.5288C117.259 24.1564 117.489 24.6316 117.949 24.9542C118.409 25.2769 118.995 25.4383 119.706 25.4383Z" fill="black"/>
<path d="M135.329 33.4248C134.097 33.4248 133.041 33.2596 132.159 32.9294C131.278 32.5992 130.569 32.1559 130.031 31.5996C129.494 31.0433 129.12 30.4267 128.911 29.7498L131.995 28.9996C132.136 29.2825 132.34 29.565 132.607 29.8473C132.873 30.1296 133.232 30.3645 133.684 30.552C134.135 30.7395 134.704 30.8332 135.389 30.8332C136.364 30.8332 137.17 30.5971 137.807 30.1248C138.443 29.6525 138.761 28.8809 138.761 27.81V25.0518H138.587C138.413 25.408 138.157 25.7714 137.821 26.142C137.484 26.5127 137.038 26.824 136.483 27.0759C135.928 27.3278 135.235 27.4538 134.404 27.4538C133.285 27.4538 132.273 27.1911 131.367 26.6658C130.461 26.1405 129.741 25.3512 129.209 24.2979C128.677 23.2446 128.411 21.9275 128.411 20.3464C128.411 18.7501 128.677 17.3998 129.21 16.2953C129.743 15.1909 130.463 14.3536 131.371 13.7834C132.279 13.2133 133.293 12.9282 134.412 12.9282C135.268 12.9282 135.972 13.0718 136.525 13.3591C137.077 13.6464 137.517 13.9912 137.843 14.3935C138.17 14.7957 138.42 15.1711 138.594 15.5196H138.776V13.1176H142.163V27.9009C142.163 29.1435 141.867 30.1731 141.274 30.9896C140.681 31.8061 139.87 32.416 138.84 32.8195C137.81 33.223 136.64 33.4247 135.329 33.4247V33.4248ZM135.359 24.7638C136.089 24.7638 136.708 24.587 137.217 24.2334C137.726 23.8798 138.115 23.3715 138.382 22.7085C138.65 22.0455 138.784 21.2505 138.784 20.3236C138.784 19.4067 138.652 18.6048 138.388 17.9178C138.124 17.2308 137.738 16.696 137.229 16.3134C136.72 15.9308 136.096 15.7395 135.359 15.7395C134.599 15.7395 133.963 15.9383 133.451 16.3361C132.938 16.7339 132.553 17.2781 132.293 17.9689C132.034 18.6597 131.904 19.4446 131.904 20.3236C131.904 21.2178 132.035 21.9973 132.299 22.6622C132.562 23.3271 132.95 23.8436 133.462 24.2117C133.974 24.5798 134.606 24.7638 135.359 24.7638Z" fill="black"/>
<path d="M151.037 27.954C149.574 27.954 148.315 27.6481 147.258 27.0362C146.202 26.4243 145.389 25.5579 144.82 24.4371C144.251 23.3163 143.967 21.9956 143.967 20.4751C143.967 18.9799 144.252 17.6656 144.822 16.5321C145.392 15.3987 146.193 14.5147 147.224 13.8801C148.255 13.2455 149.466 12.9282 150.855 12.9282C151.749 12.9282 152.596 13.0722 153.395 13.3601C154.194 13.648 154.902 14.091 155.519 14.6889C156.135 15.2869 156.619 16.0487 156.972 16.9744C157.324 17.9001 157.5 19.0014 157.5 20.2782V21.3314H145.573V19.0204H154.211C154.209 18.3611 154.069 17.7745 153.792 17.2605C153.515 16.7465 153.128 16.3418 152.633 16.0463C152.137 15.7508 151.559 15.603 150.9 15.603C150.197 15.603 149.58 15.7707 149.051 16.106C148.521 16.4413 148.109 16.8823 147.816 17.4291C147.523 17.9759 147.374 18.5745 147.369 19.2249V21.2406C147.369 22.0866 147.523 22.8111 147.831 23.4142C148.138 24.0172 148.57 24.4788 149.125 24.7989C149.681 25.1191 150.333 25.2792 151.082 25.2792C151.578 25.2792 152.03 25.2088 152.436 25.0679C152.842 24.9271 153.192 24.7168 153.486 24.4371C153.78 24.1574 154.004 23.8117 154.158 23.3999L157.364 23.7637C157.162 24.6073 156.777 25.3432 156.21 25.9715C155.643 26.5998 154.921 27.0873 154.045 27.434C153.168 27.7807 152.166 27.954 151.037 27.954L151.037 27.954Z" fill="black"/>
<path d="M35.8638 7.03337V28.8304C35.8638 32.7122 32.7122 35.8638 28.8304 35.8638H7.03337C3.15154 35.8638 0 32.7122 0 28.8304V7.03337C0 3.15154 3.15157 0 7.03337 0H28.8304C32.7122 0 35.8638 3.15157 35.8638 7.03337Z" fill="url(#paint0_linear_8658_247)"/>
<path fill-rule="evenodd" clip-rule="evenodd" d="M17.6716 5.88662L28.6689 24.9345C29.6354 26.6085 29.061 28.7523 27.387 29.7188L24.7179 31.2598C23.0439 32.2263 20.9001 31.6519 19.9336 29.9779L8.93628 10.93C7.96979 9.25596 8.54421 7.11223 10.2182 6.14573L12.8874 4.60471C14.5614 3.63822 16.7051 4.21264 17.6716 5.88665L17.6716 5.88662Z" fill="#3A0067"/>
<path fill-rule="evenodd" clip-rule="evenodd" d="M16.701 6.447L27.6283 25.3736C28.3241 26.5789 27.9106 28.1224 26.7053 28.8182L26.6182 28.8685C25.4129 29.5644 23.8694 29.1508 23.1735 27.9455L12.2463 9.01896C11.5504 7.81367 11.964 6.27017 13.1693 5.57429L13.2564 5.52401C14.4616 4.82813 16.0051 5.24172 16.701 6.447Z" fill="white"/>
<path fill-rule="evenodd" clip-rule="evenodd" d="M15.9296 18.5043L19.6421 24.9344C20.6086 26.6084 20.0342 28.7522 18.3602 29.7187L15.6911 31.2597C14.017 32.2262 11.8733 31.6518 10.9068 29.9778L7.19431 23.5476C6.22782 21.8736 6.80224 19.7298 8.47625 18.7633L11.1454 17.2223C12.8194 16.2558 14.9631 16.8302 15.9296 18.5043Z" fill="#3A0067"/>
<path fill-rule="evenodd" clip-rule="evenodd" d="M14.924 19.0039L18.6015 25.3734C19.2973 26.5787 18.8838 28.1222 17.6785 28.8181L17.5914 28.8684C16.3861 29.5643 14.8426 29.1507 14.1467 27.9454L10.4693 21.5759C9.77341 20.3706 10.187 18.8271 11.3923 18.1312L11.4794 18.0809C12.6847 17.3851 14.2282 17.7986 14.924 19.0039Z" fill="white"/>
</g>
<defs>
<linearGradient id="paint0_linear_8658_247" x1="-8.93721e-05" y1="4.09319e-07" x2="35.8638" y2="35.8639" gradientUnits="userSpaceOnUse">
<stop stop-color="#3A0067"/>
<stop offset="1" stop-color="#A855F7"/>
</linearGradient>
<clipPath id="clip0_8658_247">
<rect width="158" height="36" fill="white"/>
</clipPath>
</defs>
</svg>
